<?xml version="1.0" encoding="utf-8"?>
<!-- Generator: Adobe Illustrator 22.1.0, SVG Export Plug-In . SVG Version: 6.00 Build 0)  -->
<svg version="1.1" id="Layer_1" xmlns="http://www.w3.org/2000/svg" xmlns:xlink="http://www.w3.org/1999/xlink" x="0px" y="0px"
	 viewBox="0 0 431 294" style="enable-background:new 0 0 431 294;" xml:space="preserve">
<style type="text/css">
	.st0{fill:none;}
	.st1{stroke:#FFFFFF;stroke-width:2.8347;stroke-miterlimit:10;}
	.st2{font-family:'HelveticaNeueLTCom-BdCn';}
	.st3{font-size:101px;}
</style>
<g>
	<path d="M303.4,203.1h-79.1c-3.1,0-5.6,2.5-5.6,5.6v39.6c0,3.1,2.5,5.6,5.6,5.6h79.1c3.1,0,5.6-2.5,5.6-5.6v-39.6
		C309,205.6,306.5,203.1,303.4,203.1L303.4,203.1z M303.4,203.1"/>
	<path d="M401,203.1h-79.1c-3.1,0-5.6,2.5-5.6,5.6v39.6c0,3.1,2.5,5.6,5.6,5.6H401c3.1,0,5.6-2.5,5.6-5.6v-39.6
		C406.6,205.6,404.1,203.1,401,203.1L401,203.1z M401,203.1"/>
	<path d="M224.2,138.6h79.1c3.1,0,5.6-2.5,5.6-5.6V93.3c0-3.1-2.5-5.6-5.6-5.6h-79.1c-3.1,0-5.6,2.5-5.6,5.6v39.6
		C218.6,136,221.1,138.6,224.2,138.6L224.2,138.6z M224.2,138.6"/>
	<path d="M401,87.7h-79.1c-3.1,0-5.6,2.5-5.6,5.6v39.6c0,3.1,2.5,5.6,5.6,5.6H401c3.1,0,5.6-2.5,5.6-5.6V93.3
		C406.6,90.2,404.1,87.7,401,87.7L401,87.7z M401,87.7"/>
	<path d="M271.8,80.9h79.1c3.1,0,5.6-2.5,5.6-5.6V35.6c0-3.1-2.5-5.6-5.6-5.6h-79.1c-3.1,0-5.6,2.5-5.6,5.6v39.6
		C266.2,78.3,268.7,80.9,271.8,80.9L271.8,80.9z M271.8,80.9"/>
	<path d="M267.8,151v39.6c0,3.1,2.5,5.6,5.6,5.6h79.1c3.1,0,5.6-2.5,5.6-5.6V151c0-3.1-2.5-5.6-5.6-5.6h-79.1
		C270.3,145.4,267.8,147.9,267.8,151L267.8,151z M267.8,151"/>
	<path d="M259.4,190.6V151c0-3.1-2.5-5.6-5.6-5.6h-79.1c-3.1,0-5.6,2.5-5.6,5.6v39.6c0,3.1,2.5,5.6,5.6,5.6h79.1
		C256.9,196.2,259.4,193.7,259.4,190.6L259.4,190.6z M259.4,190.6"/>
</g>
<rect x="25.8" y="105.4" class="st0" width="315.7" height="143"/>
<text transform="matrix(1 0 0 1 25.77 177.5618)" class="st1 st2 st3">Brick</text>
</svg>
